<?xml version="1.0" ?>
<svg
    contentScriptType="text/ecmascript"
    contentStyleType="text/css"
    enable-background="new 0 0 300 300"
    height="300px"
    id="Layer_1"
    preserveAspectRatio="xMidYMid meet"
    version="1.1"
    viewBox="0.0 0 1920.0 2048"
    width="300.0px"
    xml:space="preserve"
    xmlns="http://www.w3.org/2000/svg"
    xmlns:xlink="http://www.w3.org/1999/xlink"
    zoomAndPan="magnify"
    style="fill:#cacbcc;"
>
    <path d="M640,704c0,53.333-18.667,98.667-56,136s-82.667,56-136,56s-98.667-18.667-136-56s-56-82.667-56-136s18.667-98.667,56-136  s82.667-56,136-56s98.667,18.667,136,56S640,650.667,640,704z M1664,1088v448H256v-192l320-320l160,160l512-512L1664,1088z   M1760,384H160c-8.667,0-16.167,3.167-22.5,9.5S128,407.333,128,416v1216c0,8.667,3.167,16.167,9.5,22.5s13.833,9.5,22.5,9.5h1600  c8.667,0,16.167-3.167,22.5-9.5s9.5-13.833,9.5-22.5V416c0-8.667-3.167-16.167-9.5-22.5S1768.667,384,1760,384z M1920,416v1216  c0,44-15.667,81.667-47,113s-69,47-113,47H160c-44,0-81.667-15.667-113-47s-47-69-47-113V416c0-44,15.667-81.667,47-113  s69-47,113-47h1600c44,0,81.667,15.667,113,47S1920,372,1920,416z"/>
</svg>
